# Blender v2.79 (sub 0) OBJ File: 'Rope.blend'
# www.blender.org
o Cone
v 0.191342 -0.000000 0.461940
v 0.277785 -0.000000 0.415735
v 0.097545 -0.000000 0.490393
v 0.000000 -0.000000 0.500000
v -0.097544 0.000000 0.490393
v 0.415735 0.000000 0.277785
v 0.461940 0.000000 0.191342
v 0.490393 0.000000 0.097545
v 0.353554 0.000000 -0.353554
v 0.500000 0.000000 0.000000
v 0.490393 0.000000 -0.097545
v 0.353553 -0.000000 0.353553
v 0.461940 0.000000 -0.191342
v -0.353553 0.000000 0.353553
v -0.277785 0.000000 0.415735
v -0.191341 0.000000 0.461940
v 0.415735 0.000000 -0.277785
v 0.097545 0.000000 -0.490393
v -0.000000 0.000000 -0.500000
v 0.191342 0.000000 -0.461940
v -0.490393 0.000000 -0.097545
v -0.500000 -0.000000 0.000000
v -0.277785 0.000000 -0.415735
v -0.353554 -0.000000 -0.353553
v 0.277785 0.000000 -0.415735
v -0.097545 0.000000 -0.490393
v -0.461940 0.000000 -0.191341
v -0.191342 0.000000 -0.461940
v -0.415735 0.000000 -0.277785
v -0.415735 0.000000 0.277786
v -0.490393 -0.000000 0.097546
v -0.461940 -0.000000 0.191342
v 0.241688 -0.476797 0.100111
v 0.256575 -0.476797 0.051036
v 0.184980 -0.476797 0.184980
v 0.261602 -0.476797 -0.000000
v 0.184980 -0.476797 -0.184980
v 0.145338 -0.476797 -0.217514
v -0.051036 -0.476797 -0.256575
v -0.100111 -0.476797 -0.241688
v -0.184980 -0.476797 -0.184980
v -0.145338 -0.476797 -0.217514
v 0.051036 -0.476797 -0.256575
v -0.000000 -0.476797 -0.261602
v 0.217514 -0.476797 0.145338
v 0.241688 -0.476797 -0.100111
v 0.217514 -0.476797 -0.145338
v 0.256575 -0.476797 -0.051036
v 0.100111 -0.476797 -0.241688
v -0.241689 -0.476797 -0.100111
v -0.256575 -0.476797 -0.051036
v -0.217514 -0.476797 0.145338
v -0.184980 -0.476797 0.184980
v -0.145338 -0.476797 0.217514
v 0.100111 -0.476797 0.241688
v 0.145338 -0.476797 0.217514
v -0.100110 -0.476797 0.241689
v -0.051036 -0.476797 0.256575
v -0.261602 -0.476797 0.000000
v -0.256575 -0.476797 0.051036
v 0.000000 -0.476797 0.261602
v 0.051036 -0.476797 0.256575
v -0.241688 -0.476797 0.100111
v -0.217514 -0.476797 -0.145338
v -0.405412 -0.000000 0.167927
v -0.364861 -0.000000 0.243792
v -0.185160 -0.476797 0.076696
v -0.166640 -0.476797 0.111345
v -0.310289 0.000000 0.310289
v -0.141715 -0.476797 0.141715
v 0.243792 0.000000 -0.364861
v 0.310288 -0.000000 -0.310289
v 0.141715 -0.476797 -0.141716
v 0.111345 -0.476797 -0.166640
v 0.364861 -0.000000 -0.243793
v 0.166640 -0.476797 -0.111345
v 0.243792 -0.000000 0.364861
v 0.310289 -0.000000 0.310288
v 0.141716 -0.476797 0.141715
v 0.111345 -0.476797 0.166640
v 0.200416 -0.476797 -0.000000
v 0.196565 -0.476797 -0.039099
v 0.438814 0.000000 -0.000000
v 0.430383 0.000000 -0.085609
v 0.167926 0.000000 -0.405412
v 0.076696 -0.476797 -0.185160
v 0.185160 -0.476797 -0.076696
v 0.405411 -0.000000 -0.167927
v 0.039099 -0.476797 -0.196565
v 0.085608 0.000000 -0.430383
v -0.405412 -0.000000 -0.167927
v -0.166640 -0.476797 -0.111345
v -0.185160 -0.476797 -0.076696
v -0.364861 0.000000 -0.243792
v -0.430383 0.000000 -0.085608
v -0.196565 -0.476797 -0.039099
v -0.243792 0.000000 0.364861
v -0.111345 -0.476797 0.166640
v -0.438814 0.000000 -0.000000
v -0.430383 -0.000000 0.085608
v -0.200416 -0.476797 -0.000000
v -0.196565 -0.476797 0.039099
v -0.141715 -0.476797 -0.141715
v -0.310289 -0.000000 -0.310289
v -0.111345 -0.476797 -0.166640
v -0.243792 -0.000000 -0.364861
v 0.000000 0.000000 0.438814
v 0.085609 -0.000000 0.430383
v 0.000000 -0.476797 0.200416
v 0.039099 -0.476797 0.196565
v 0.364861 0.000000 0.243792
v 0.166640 -0.476797 0.111345
v -0.167927 0.000000 0.405412
v -0.076696 -0.476797 0.185160
v 0.196565 -0.476797 0.039099
v 0.430383 0.000000 0.085608
v 0.167927 -0.000000 0.405411
v 0.076696 -0.476797 0.185160
v 0.405412 -0.000000 0.167927
v 0.185160 -0.476797 0.076696
v -0.085608 -0.000000 0.430383
v -0.039099 -0.476797 0.196565
v -0.076696 -0.476797 -0.185160
v -0.167927 -0.000000 -0.405412
v -0.039099 -0.476797 -0.196565
v -0.085608 0.000000 -0.430383
v 0.000000 -0.476797 -0.200416
v -0.000000 0.000000 -0.438815
vn 0.4220 -0.4455 0.7896
vn -0.5680 -0.4455 0.6921
vn -0.6921 -0.4455 0.5680
vn 0.7896 -0.4455 0.4220
vn 0.6921 -0.4455 0.5680
vn -0.4220 -0.4455 -0.7896
vn 0.0878 -0.4455 0.8910
vn 0.2599 -0.4455 0.8567
vn -0.0000 1.0000 -0.0000
vn -0.7896 -0.4455 0.4220
vn 0.7896 -0.4455 -0.4220
vn -0.6921 -0.4455 -0.5680
vn 0.8567 -0.4455 -0.2599
vn -0.8567 -0.4455 0.2599
vn 0.5680 -0.4455 -0.6921
vn 0.8567 -0.4455 0.2599
vn -0.8567 -0.4455 -0.2599
vn -0.8910 -0.4455 0.0878
vn -0.5680 -0.4455 -0.6921
vn -0.4220 -0.4455 0.7896
vn 0.8910 -0.4455 0.0878
vn 0.4220 -0.4455 -0.7896
vn 0.0878 -0.4455 -0.8910
vn -0.2599 -0.4455 -0.8567
vn 0.5680 -0.4455 0.6921
vn 0.6921 -0.4455 -0.5680
vn -0.0878 -0.4455 0.8910
vn -0.8910 -0.4455 -0.0878
vn 0.8910 -0.4455 -0.0878
vn -0.0878 -0.4455 -0.8910
vn -0.7896 -0.4455 -0.4220
vn 0.2599 -0.4455 -0.8567
vn -0.2599 -0.4455 0.8567
vn 0.0000 -1.0000 0.0000
vn 0.8910 0.4455 -0.0878
vn 0.6921 0.4455 -0.5680
vn 0.7896 0.4455 -0.4220
vn -0.8910 0.4455 0.0878
vn 0.8567 0.4455 0.2599
vn 0.8910 0.4455 0.0878
vn 0.6921 0.4455 0.5680
vn -0.0878 0.4455 -0.8910
vn -0.7896 0.4455 0.4220
vn 0.0878 0.4455 -0.8910
vn -0.0878 0.4455 0.8910
vn 0.5680 0.4455 0.6921
vn -0.4220 0.4455 -0.7896
vn 0.4220 0.4455 0.7896
vn 0.5680 0.4455 -0.6921
vn -0.5680 0.4455 0.6921
vn -0.8567 0.4455 0.2599
vn -0.2599 0.4455 0.8567
vn 0.4220 0.4455 -0.7896
vn -0.5680 0.4455 -0.6921
vn -0.7896 0.4455 -0.4220
vn 0.0878 0.4455 0.8910
vn 0.7896 0.4455 0.4220
vn -0.8910 0.4455 -0.0878
vn 0.8567 0.4455 -0.2599
vn -0.2599 0.4455 -0.8567
vn -0.4220 0.4455 0.7896
vn 0.2599 0.4455 -0.8567
vn 0.2599 0.4455 0.8567
vn -0.8567 0.4455 -0.2599
vn -0.6921 0.4455 0.5680
vn -0.6921 0.4455 -0.5680
s off
f 2//1 1//1 55//1 56//1
f 15//2 14//2 53//2 54//2
f 14//3 30//3 52//3 53//3
f 7//4 6//4 45//4 33//4
f 6//5 12//5 35//5 45//5
f 23//6 28//6 40//6 42//6
f 3//7 4//7 61//7 62//7
f 1//8 3//8 62//8 55//8
f 8//9 10//9 83//9 116//9 119//9 111//9 78//9 77//9 117//9 108//9 107//9 121//9 113//9 97//9 69//9 66//9 65//9 100//9 99//9 22//9 31//9 32//9 30//9 14//9 15//9 16//9 5//9 4//9 3//9 1//9 2//9 12//9 6//9 7//9
f 30//10 32//10 63//10 52//10
f 17//11 13//11 46//11 47//11
f 29//12 24//12 41//12 64//12
f 13//13 11//13 48//13 46//13
f 32//14 31//14 60//14 63//14
f 25//15 9//15 37//15 38//15
f 8//16 7//16 33//16 34//16
f 21//17 27//17 50//17 51//17
f 31//18 22//18 59//18 60//18
f 24//19 23//19 42//19 41//19
f 16//20 15//20 54//20 57//20
f 10//21 8//21 34//21 36//21
f 20//22 25//22 38//22 49//22
f 19//23 18//23 43//23 44//23
f 28//24 26//24 39//24 40//24
f 12//25 2//25 56//25 35//25
f 9//26 17//26 47//26 37//26
f 4//27 5//27 58//27 61//27
f 22//28 21//28 51//28 59//28
f 11//29 10//29 36//29 48//29
f 26//30 19//30 44//30 39//30
f 27//31 29//31 64//31 50//31
f 18//32 20//32 49//32 43//32
f 5//33 16//33 57//33 58//33
f 48//34 36//34 81//34 82//34 87//34 76//34 73//34 74//34 86//34 89//34 127//34 125//34 123//34 105//34 103//34 92//34 93//34 96//34 101//34 59//34 51//34 50//34 64//34 41//34 42//34 40//34 39//34 44//34 43//34 49//34 38//34 37//34 47//34 46//34
f 100//35 102//35 101//35 99//35
f 69//36 70//36 68//36 66//36
f 66//37 68//37 67//37 65//37
f 84//38 82//38 81//38 83//38
f 95//39 96//39 93//39 91//39
f 99//40 101//40 96//40 95//40
f 94//41 92//41 103//41 104//41
f 108//42 110//42 109//42 107//42
f 75//43 76//43 87//43 88//43
f 107//44 109//44 122//44 121//44
f 128//45 127//45 89//45 90//45
f 104//46 103//46 105//46 106//46
f 77//47 80//47 118//47 117//47
f 106//48 105//48 123//48 124//48
f 97//49 98//49 70//49 69//49
f 71//50 74//50 73//50 72//50
f 88//51 87//51 82//51 84//51
f 90//52 89//52 86//52 85//52
f 113//53 114//53 98//53 97//53
f 78//54 79//54 80//54 77//54
f 119//55 120//55 112//55 111//55
f 126//56 125//56 127//56 128//56
f 91//57 93//57 92//57 94//57
f 83//58 81//58 115//58 116//58
f 22//9 99//9 95//9 91//9 94//9 104//9 106//9 124//9 126//9 128//9 90//9 85//9 71//9 72//9 75//9 88//9 84//9 83//9 10//9 11//9 13//9 17//9 9//9 25//9 20//9 18//9 19//9 26//9 28//9 23//9 24//9 29//9 27//9 21//9
f 65//59 67//59 102//59 100//59
f 117//60 118//60 110//60 108//60
f 85//61 86//61 74//61 71//61
f 121//62 122//62 114//62 113//62
f 124//63 123//63 125//63 126//63
f 116//64 115//64 120//64 119//64
f 59//34 101//34 102//34 67//34 68//34 70//34 98//34 114//34 122//34 109//34 110//34 118//34 80//34 79//34 112//34 120//34 115//34 81//34 36//34 34//34 33//34 45//34 35//34 56//34 55//34 62//34 61//34 58//34 57//34 54//34 53//34 52//34 63//34 60//34
f 72//65 73//65 76//65 75//65
f 111//66 112//66 79//66 78//66
